<svg xmlns="http://www.w3.org/2000/svg" width="1400" height="760" viewBox="0 0 1400 760">
  <rect width="1400" height="760" fill="#fbfaf7"/>
  <style>.h{font:700 28px Arial;fill:#12335b}.t{font:600 17px Arial;fill:#12335b}.s{font:14px Arial;fill:#31445c}.box{fill:#fff;stroke:#2b6f8a;stroke-width:2;rx:16}.arrow{stroke:#2b6f8a;stroke-width:4;fill:none;marker-end:url(#a)}</style>
  <defs><marker id="a" viewBox="0 0 10 10" refX="9" refY="5" markerWidth="8" markerHeight="8" orient="auto"><path d="M0,0 L10,5 L0,10 Z" fill="#2b6f8a"/></marker></defs>
  <text x="80" y="55" class="h">Embryo sections over time</text><text x="555" y="55" class="h">Stereo-seq spatial atlas</text><text x="1040" y="55" class="h">Reusable modeling resource</text>
  <rect x="55" y="95" width="350" height="560" class="box"/>
  <g transform="translate(95 130)">
    <text x="0" y="0" class="t">Mouse organogenesis</text>
    <path d="M35 55 C95 10 200 35 235 115 C270 200 205 290 110 292 C38 292 0 225 10 140 C14 100 18 75 35 55Z" fill="#eef4f7" stroke="#789"/>
    <g fill="#0f8b8d"><circle cx="75" cy="105" r="8"/><circle cx="110" cy="130" r="8"/><circle cx="150" cy="160" r="8"/></g>
    <g fill="#ee6c4d"><circle cx="180" cy="100" r="8"/><circle cx="205" cy="180" r="8"/><circle cx="135" cy="235" r="8"/></g>
    <text x="0" y="355" class="t">DNB-patterned array</text>
    <rect x="0" y="385" width="250" height="110" fill="#fff" stroke="#789"/>
    <g fill="#cfd8e6"><circle cx="25" cy="410" r="4"/><circle cx="55" cy="410" r="4"/><circle cx="85" cy="410" r="4"/><circle cx="115" cy="410" r="4"/><circle cx="145" cy="410" r="4"/><circle cx="175" cy="410" r="4"/><circle cx="205" cy="410" r="4"/><circle cx="235" cy="410" r="4"/></g>
    <text x="0" y="535" class="s">large field of view + cellular resolution</text>
  </g>
  <path d="M405 375 L500 375" class="arrow"/>
  <rect x="505" y="95" width="420" height="560" class="box"/>
  <g transform="translate(545 130)">
    <rect x="0" y="0" width="360" height="80" fill="#eef4f7" stroke="#789"/><text x="24" y="48" class="t">Spatial transcriptome capture</text>
    <rect x="0" y="120" width="170" height="85" fill="#f7f1e7" stroke="#789"/><text x="28" y="172" class="t">Cell types</text>
    <rect x="205" y="120" width="155" height="85" fill="#eef7f0" stroke="#789"/><text x="230" y="172" class="t">Lineages</text>
    <path d="M180 205 L180 260" class="arrow"/>
    <rect x="0" y="265" width="360" height="90" fill="#fff" stroke="#789"/><text x="25" y="318" class="t">Spatiotemporal gene programs</text>
    <rect x="0" y="400" width="360" height="90" fill="#f4eef7" stroke="#789"/><text x="32" y="453" class="t">Data portal + raw reads + code</text>
  </g>
  <path d="M925 375 L1020 375" class="arrow"/>
  <rect x="1025" y="95" width="325" height="560" class="box"/>
  <g transform="translate(1060 135)">
    <text x="0" y="0" class="t">Atlas uses</text>
    <rect x="0" y="40" width="230" height="70" fill="#eef4f7" stroke="#789"/><text x="22" y="83" class="t">Benchmark domains</text>
    <rect x="0" y="145" width="230" height="70" fill="#f7f1e7" stroke="#789"/><text x="22" y="188" class="t">Train spatial priors</text>
    <rect x="0" y="250" width="230" height="70" fill="#eef7f0" stroke="#789"/><text x="22" y="293" class="t">Test trajectory models</text>
    <rect x="0" y="355" width="230" height="70" fill="#f4eef7" stroke="#789"/><text x="22" y="398" class="t">Developmental windows</text>
  </g>
</svg>
