<svg xmlns="http://www.w3.org/2000/svg" width="1400" height="820" viewBox="0 0 1400 820">
<defs><style>.bg{fill:#f8fbff}.p{fill:#fff;stroke:#d8e2f0;stroke-width:2}.h{font:700 25px Arial;fill:#13223a}.s{font:600 16px Arial;fill:#405168}.t{font:14px Arial;fill:#27364a}.m{font:16px Consolas;fill:#20324d}.a{stroke:#476fba;stroke-width:3;fill:none;marker-end:url(#ar)}.d{stroke:#7f8da3;stroke-width:2;stroke-dasharray:6 6;fill:none}.e{stroke:#8aa7d8;stroke-width:2;fill:none}.A{fill:#4f7bd9}.B{fill:#f28e2b}.C{fill:#59a14f}.D{fill:#b07aa1}.z1{fill:#d7e7ff}.z2{fill:#ffe5c4}.z3{fill:#dff1df}.z4{fill:#eadcf0}</style><marker id="ar" viewBox="0 0 10 10" refX="8" refY="5" markerWidth="8" markerHeight="8" orient="auto"><path d="M0 0L10 5L0 10Z" fill="#476fba"/></marker></defs>
<rect class="bg" width="1400" height="820"/><text x="60" y="55" class="h">BASS: Bayesian multi-scale, multi-sample spatial modeling</text><text x="60" y="85" class="s">Jointly infer cell-type labels and tissue-domain labels rather than clustering first and smoothing later</text>
<rect x="55" y="125" width="365" height="610" rx="24" class="p"/><rect x="517" y="125" width="365" height="610" rx="24" class="p"/><rect x="980" y="125" width="365" height="610" rx="24" class="p"/>
<text x="90" y="165" class="h">Inputs</text><text x="90" y="195" class="s">Replicate tissue sections</text><text x="90" y="222" class="t">Cell/spot expression Y plus coordinates S</text>
<g transform="translate(95 270)"><text y="-18" class="t">sample 1</text><path d="M20 45C70 0 170 10 200 75C228 135 177 185 105 180C45 176 5 130 20 45Z" class="z1" stroke="#8aa7d8" stroke-width="2"/><path d="M90 28C158 34 205 82 178 142C130 132 78 104 58 70C68 50 78 37 90 28Z" class="z2" stroke="#e0a45e" stroke-width="2"/><circle cx="45" cy="80" r="8" class="A"/><circle cx="75" cy="60" r="8" class="B"/><circle cx="115" cy="75" r="8" class="A"/><circle cx="155" cy="90" r="8" class="C"/><circle cx="65" cy="125" r="8" class="B"/><circle cx="105" cy="145" r="8" class="D"/><circle cx="145" cy="130" r="8" class="A"/></g>
<g transform="translate(95 515)"><text y="-18" class="t">sample 2</text><path d="M20 55C55 5 160 0 210 50C260 100 215 185 125 190C55 194 0 135 20 55Z" class="z3" stroke="#8fbd8f" stroke-width="2"/><path d="M22 55C72 78 105 125 100 188C45 178 10 138 20 88Z" class="z4" stroke="#bd9bcc" stroke-width="2"/><circle cx="52" cy="85" r="8" class="D"/><circle cx="88" cy="60" r="8" class="A"/><circle cx="130" cy="65" r="8" class="B"/><circle cx="170" cy="95" r="8" class="C"/><circle cx="72" cy="130" r="8" class="D"/><circle cx="115" cy="145" r="8" class="A"/><circle cx="160" cy="150" r="8" class="C"/></g>
<rect x="315" y="370" width="70" height="125" rx="12" fill="#f4f7fc" stroke="#c8d5e6"/><text x="333" y="398" class="t">genes</text><rect x="335" y="420" width="8" height="55" class="A"/><rect x="350" y="440" width="8" height="35" class="B"/><rect x="365" y="405" width="8" height="70" class="C"/>
<path d="M430 425C465 425 480 425 515 425" class="a"/>
<text x="552" y="165" class="h">Model</text><text x="552" y="195" class="s">Bayesian hierarchy with two latent labels</text>
<g transform="translate(555 245)"><rect x="95" y="0" width="160" height="78" rx="16" fill="#eef5ff" stroke="#9fb9e4" stroke-width="2"/><text x="125" y="32" class="m">Y_i | c_i</text><text x="118" y="58" class="t">expression likelihood</text><rect x="10" y="150" width="155" height="86" rx="16" fill="#fff3df" stroke="#e6b06e" stroke-width="2"/><text x="48" y="184" class="m">c_i</text><text x="36" y="212" class="t">cell type</text><rect x="190" y="150" width="155" height="86" rx="16" fill="#eaf7ea" stroke="#9ac79a" stroke-width="2"/><text x="228" y="184" class="m">z_i</text><text x="222" y="212" class="t">domain</text><path d="M168 78L92 150" class="e" marker-end="url(#ar)"/><path d="M188 78L268 150" class="e" marker-end="url(#ar)"/><path d="M165 193C176 180 186 180 190 193" class="d" marker-end="url(#ar)"/><text x="45" y="292" class="m">p(c,z | Y,S) with spatial prior</text><text x="45" y="323" class="t">neighboring cells prefer coherent z; samples share structure</text></g>
<path d="M890 425C925 425 940 425 975 425" class="a"/>
<text x="1015" y="165" class="h">Outputs</text><text x="1015" y="195" class="s">Fine cell states plus coarse tissue domains</text>
<g transform="translate(1025 250)"><path d="M20 50C70 5 175 12 210 78C240 135 185 190 108 182C46 176 5 132 20 50Z" class="z1" stroke="#7fa1dc" stroke-width="2"/><path d="M85 30C155 38 210 90 180 145C130 132 78 104 58 72C68 50 78 37 85 30Z" class="z2" stroke="#d79441" stroke-width="2"/><path d="M62 120C103 145 142 145 180 145C158 176 126 188 92 180C62 172 48 150 62 120Z" class="z3" stroke="#7db37e" stroke-width="2"/><text x="35" y="230" class="t">domain map z</text></g>
<g transform="translate(1225 260)"><text x="0" y="-18" class="t">cell-type mixture</text><rect x="0" y="0" width="35" height="95" class="A"/><rect x="35" y="0" width="25" height="95" class="B"/><rect x="60" y="0" width="22" height="95" class="C"/><rect x="82" y="0" width="13" height="95" class="D"/><rect x="0" y="125" width="18" height="95" class="A"/><rect x="18" y="125" width="40" height="95" class="B"/><rect x="58" y="125" width="30" height="95" class="C"/><rect x="88" y="125" width="7" height="95" class="D"/><rect x="0" y="250" width="22" height="95" class="A"/><rect x="22" y="250" width="14" height="95" class="B"/><rect x="36" y="250" width="48" height="95" class="C"/><rect x="84" y="250" width="11" height="95" class="D"/></g>
<rect x="1025" y="625" width="285" height="78" rx="14" fill="#f4f7fc" stroke="#c8d5e6"/><text x="1045" y="658" class="m">shared domains, local variation</text><text x="1045" y="685" class="t">compare samples without erasing tissue context</text>
</svg>
